<svg xmlns="http://www.w3.org/2000/svg" xmlns:xlink="http://www.w3.org/1999/xlink" width="512" height="512" viewBox="0 0 512 512">
  <defs>
    <clipPath id="clip-Stre_Web_App_512">
      <rect width="512" height="512"/>
    </clipPath>
  </defs>
  <g id="Stre_Web_App_512" data-name="Stre Web App 512" clip-path="url(#clip-Stre_Web_App_512)">
    <g id="StreWebApp">
      <rect id="Rettangolo_1" data-name="Rettangolo 1" width="512" height="512" rx="120" fill="#3b82f6"/>
      <g id="Poligono_2" data-name="Poligono 2" transform="translate(547 32) rotate(90)" fill="none" stroke-linecap="round" stroke-linejoin="round">
        <path d="M162.536,96.131c31.781-46.315,100.147-46.315,131.928,0l76.582,111.606C407.473,260.822,369.464,333,305.082,333H151.918c-64.382,0-102.391-72.178-65.964-125.263Z" stroke="none"/>
        <path d="M 228.5000152587891 121.3944702148438 C 224.5666809082031 121.3944702148438 217.1937866210938 122.522705078125 212.0090179443359 130.0785827636719 L 135.4269104003906 241.6841430664062 C 129.484130859375 250.3446960449219 132.1209106445312 258.3298034667969 134.2215576171875 262.3189086914062 C 136.3221130371094 266.3080444335938 141.4144592285156 273.0000305175781 151.9177856445312 273.0000305175781 L 305.0822448730469 273.0000305175781 C 315.5855712890625 273.0000305175781 320.6777954101562 266.3080444335938 322.7784423828125 262.3189086914062 C 324.8791198730469 258.3299255371094 327.5158081054688 250.3446960449219 321.572998046875 241.6841430664062 L 244.9910125732422 130.0785827636719 C 239.8061218261719 122.522705078125 232.433349609375 121.3944702148438 228.5000152587891 121.3944702148438 M 228.5000152587891 61.39443969726562 C 253.5366516113281 61.39443969726562 278.5733032226562 72.97329711914062 294.4638061523438 96.13104248046875 L 371.0458984375 207.7365875244141 C 407.4727783203125 260.8224792480469 369.464111328125 333.0000305175781 305.0822448730469 333.0000305175781 L 151.9177856445312 333.0000305175781 C 87.53591918945312 333.0000305175781 49.52725219726562 260.8224792480469 85.95401000976562 207.7365875244141 L 162.5362243652344 96.13104248046875 C 178.4267272949219 72.97329711914062 203.46337890625 61.39443969726562 228.5000152587891 61.39443969726562 Z" stroke="none" fill="#fff"/>
      </g>
      <path id="Tracciato_1" data-name="Tracciato 1" d="M129.671-24.137H87.757V147.808H-8.461L129.671,310" transform="translate(57.816 117.637)" fill="none" stroke="#fff" stroke-linecap="round" stroke-linejoin="round" stroke-width="48"/>
    </g>
  </g>
</svg>
